<?xml version="1.0" encoding="utf-8"?><svg viewBox="0 0 29 30" xmlns="http://www.w3.org/2000/svg" xmlns:xlink="http://www.w3.org/1999/xlink"><style>:root>svg{display:none}:root>svg:target{display:block}</style><svg viewBox="0 0 16 24" id="arrow-down" xmlns="http://www.w3.org/2000/svg"><path d="M16 16l-1.41-1.41L9 20.17V0H7v20.17l-5.58-5.59L0 16l8 8 8-8z"/></svg><svg viewBox="0 0 14 22" id="arrow-right" xmlns="http://www.w3.org/2000/svg"><path d="M2.581 21.606L13.187 11 2.582.394.813 2.16 9.653 11l-8.84 8.839 1.768 1.767z"/></svg><svg viewBox="0 0 24 24" id="check" xmlns="http://www.w3.org/2000/svg"><path d="M20.285 2L9 13.567 3.714 8.556 0 12.272 9 21 24 5.715z"/></svg><svg viewBox="0 0 24 24" id="close" xmlns="http://www.w3.org/2000/svg"><path d="M23.954 21.03l-9.184-9.095 9.092-9.174L21.03-.046l-9.09 9.179L2.764.045l-2.81 2.81L9.14 11.96.045 21.144l2.81 2.81 9.112-9.192 9.18 9.1z"/></svg><svg viewBox="0 0 14 28" id="facebook" xmlns="http://www.w3.org/2000/svg"><path d="M11.432 4.857h2.34V.554c-.404-.058-1.792-.19-3.409-.19-3.372 0-5.683 2.24-5.683 6.358v3.79H.958v4.81H4.68v12.103h4.564V15.323h3.57l.568-4.81h-4.14V7.199c.002-1.39.356-2.342 2.19-2.342z"/></svg><svg viewBox="0 0 29 30" id="instagram" xmlns="http://www.w3.org/2000/svg"><path fill-rule="evenodd" clip-rule="evenodd" d="M9.4 0h10.653c4.902 0 8.877 4.198 8.877 9.375v11.25c0 5.177-3.975 9.375-8.877 9.375H9.4C4.5 30 .523 25.802.523 20.625V9.375C.523 4.198 4.5 0 9.4 0zm10.653 27.188c3.426 0 6.213-2.944 6.213-6.563V9.375c0-3.619-2.787-6.563-6.213-6.563H9.4c-3.426 0-6.214 2.944-6.214 6.563v11.25c0 3.619 2.788 6.563 6.214 6.563h10.653z"/><path fill-rule="evenodd" clip-rule="evenodd" d="M7.625 15c0-4.142 3.18-7.5 7.101-7.5 3.922 0 7.102 3.358 7.102 7.5 0 4.142-3.18 7.5-7.101 7.5-3.922 0-7.102-3.358-7.102-7.5zm2.663 0c0 2.584 1.992 4.688 4.438 4.688 2.447 0 4.439-2.104 4.439-4.688 0-2.586-1.992-4.688-4.439-4.688-2.446 0-4.438 2.102-4.438 4.688z"/><path d="M23.307 6.937c0 .552-.424 1-.947 1-.522 0-.946-.448-.946-1s.424-.999.946-.999c.523 0 .947.447.947 1z"/></svg><svg viewBox="0 0 15 15" id="search" xmlns="http://www.w3.org/2000/svg"><path d="M13.564 14.34L8.801 9.575a5 5 0 11.332-7.896 5 5 0 01.848 6.717l4.762 4.763-1.178 1.178-.001.001zM5.904 2.166a3.333 3.333 0 102.43 1.053l.505.5-.568-.567-.01-.01a3.31 3.31 0 00-2.357-.976z"/></svg><svg viewBox="0 0 29 26" id="twitter" xmlns="http://www.w3.org/2000/svg"><path d="M28.875 3.613c-1.056.49-2.182.813-3.355.97a6.068 6.068 0 002.561-3.398 11.27 11.27 0 01-3.692 1.488C23.319 1.471 21.797.727 20.135.727c-3.224 0-5.82 2.764-5.82 6.152 0 .487.04.956.135 1.402-4.842-.249-9.126-2.7-12.003-6.433a6.46 6.46 0 00-.798 3.109c0 2.13 1.039 4.018 2.587 5.111a5.518 5.518 0 01-2.631-.757v.067c0 2.99 2.019 5.472 4.666 6.043a5.52 5.52 0 01-1.527.203c-.373 0-.75-.023-1.103-.105.755 2.435 2.896 4.226 5.442 4.284-1.981 1.637-4.497 2.623-7.22 2.623-.478 0-.936-.022-1.394-.084a15.769 15.769 0 008.934 2.76c10.716 0 16.575-9.375 16.575-17.501 0-.272-.01-.535-.022-.795 1.156-.866 2.127-1.948 2.919-3.193z"/></svg></svg>